<?xml version="1.0" encoding="UTF-8" standalone="no"?>
<!DOCTYPE svg PUBLIC "-//W3C//DTD SVG 1.1//EN"
 "http://www.w3.org/Graphics/SVG/1.1/DTD/svg11.dtd">
<!-- Generated by graphviz version 2.26.3 (20100126.1600)
 -->
<!-- Title: GuoliceParseGraph Pages: 1 -->
<svg width="1291pt" height="404pt"
 viewBox="0.00 0.00 1291.00 404.00" xmlns="http://www.w3.org/2000/svg" xmlns:xlink="http://www.w3.org/1999/xlink">
<g id="graph1" class="graph" transform="scale(1 1) rotate(0) translate(4 400)">
<title>GuoliceParseGraph</title>
<polygon fill="white" stroke="white" points="-4,5 -4,-400 1288,-400 1288,5 -4,5"/>
<!-- node0 -->
<g id="node1" class="node"><title>node0</title>
<ellipse fill="#9620a0" stroke="#9620a0" cx="505" cy="-378" rx="57.8626" ry="18"/>
<text text-anchor="middle" x="505" y="-373.4" font-family="Times New Roman,serif" font-size="14.00">PROGRAM</text>
</g>
<!-- node1 -->
<g id="node2" class="node"><title>node1</title>
<ellipse fill="#9620a0" stroke="#9620a0" cx="53" cy="-306" rx="53.1641" ry="18"/>
<text text-anchor="middle" x="53" y="-301.4" font-family="Times New Roman,serif" font-size="14.00">B1 ( Box ) </text>
</g>
<!-- node0&#45;&gt;node1 -->
<g id="edge2" class="edge"><title>node0&#45;&gt;node1</title>
<path fill="none" stroke="black" d="M449.34,-372.858C373.271,-365.248 232.826,-349.122 115,-324 110.691,-323.081 106.243,-322.02 101.8,-320.882"/>
<polygon fill="black" stroke="black" points="102.705,-317.501 92.1403,-318.293 100.893,-324.263 102.705,-317.501"/>
</g>
<!-- node2 -->
<g id="node3" class="node"><title>node2</title>
<ellipse fill="#9620a0" stroke="#9620a0" cx="181" cy="-306" rx="57.1889" ry="18"/>
<text text-anchor="middle" x="181" y="-301.4" font-family="Times New Roman,serif" font-size="14.00">L1 ( Label ) </text>
</g>
<!-- node0&#45;&gt;node2 -->
<g id="edge4" class="edge"><title>node0&#45;&gt;node2</title>
<path fill="none" stroke="black" d="M455.342,-368.524C403.247,-358.369 319.075,-341.355 247,-324 242.594,-322.939 238.035,-321.795 233.467,-320.615"/>
<polygon fill="black" stroke="black" points="234.069,-317.154 223.508,-317.995 232.288,-323.924 234.069,-317.154"/>
</g>
<!-- node3 -->
<g id="node4" class="node"><title>node3</title>
<ellipse fill="#9620a0" stroke="#9620a0" cx="340" cy="-306" rx="83.8525" ry="18"/>
<text text-anchor="middle" x="340" y="-301.4" font-family="Times New Roman,serif" font-size="14.00">var1 ( int variable ) </text>
</g>
<!-- node0&#45;&gt;node3 -->
<g id="edge6" class="edge"><title>node0&#45;&gt;node3</title>
<path fill="none" stroke="black" d="M471.212,-363.256C446.753,-352.583 413.396,-338.027 386.436,-326.263"/>
<polygon fill="black" stroke="black" points="387.757,-323.021 377.192,-322.229 384.957,-329.436 387.757,-323.021"/>
</g>
<!-- node4 -->
<g id="node5" class="node"><title>node4</title>
<polygon fill="none" stroke="black" points="469,-324 442,-306 469,-288 496,-306 469,-324"/>
<text text-anchor="middle" x="469" y="-301.4" font-family="Times New Roman,serif" font-size="14.00">:=</text>
</g>
<!-- node0&#45;&gt;node4 -->
<g id="edge8" class="edge"><title>node0&#45;&gt;node4</title>
<path fill="none" stroke="black" d="M496.101,-360.202C491.367,-350.735 485.494,-338.988 480.427,-328.854"/>
<polygon fill="black" stroke="black" points="483.481,-327.136 475.879,-319.757 477.22,-330.267 483.481,-327.136"/>
</g>
<!-- node7 -->
<g id="node8" class="node"><title>node7</title>
<polygon fill="none" stroke="black" points="541,-324 514,-306 541,-288 568,-306 541,-324"/>
<text text-anchor="middle" x="541" y="-301.4" font-family="Times New Roman,serif" font-size="14.00">:=</text>
</g>
<!-- node0&#45;&gt;node7 -->
<g id="edge14" class="edge"><title>node0&#45;&gt;node7</title>
<path fill="none" stroke="black" d="M513.899,-360.202C518.633,-350.735 524.506,-338.988 529.573,-328.854"/>
<polygon fill="black" stroke="black" points="532.78,-330.267 534.121,-319.757 526.519,-327.136 532.78,-330.267"/>
</g>
<!-- node10 -->
<g id="node11" class="node"><title>node10</title>
<polygon fill="none" stroke="black" points="682,-324 655,-306 682,-288 709,-306 682,-324"/>
<text text-anchor="middle" x="682" y="-301.4" font-family="Times New Roman,serif" font-size="14.00">:=</text>
</g>
<!-- node0&#45;&gt;node10 -->
<g id="edge20" class="edge"><title>node0&#45;&gt;node10</title>
<path fill="none" stroke="black" d="M540.393,-363.603C574.292,-349.813 624.687,-329.314 655.326,-316.85"/>
<polygon fill="black" stroke="black" points="656.963,-319.963 664.907,-312.953 654.325,-313.479 656.963,-319.963"/>
</g>
<!-- node13 -->
<g id="node14" class="node"><title>node13</title>
<polygon fill="none" stroke="black" points="895,-324 868,-306 895,-288 922,-306 895,-324"/>
<text text-anchor="middle" x="895" y="-301.4" font-family="Times New Roman,serif" font-size="14.00">:=</text>
</g>
<!-- node0&#45;&gt;node13 -->
<g id="edge26" class="edge"><title>node0&#45;&gt;node13</title>
<path fill="none" stroke="black" d="M555.187,-368.735C636.815,-353.665 796.001,-324.277 863.517,-311.812"/>
<polygon fill="black" stroke="black" points="864.341,-315.219 873.54,-309.962 863.07,-308.336 864.341,-315.219"/>
</g>
<!-- node16 -->
<g id="node17" class="node"><title>node16</title>
<polygon fill="none" stroke="black" points="1055,-324 1028,-306 1055,-288 1082,-306 1055,-324"/>
<text text-anchor="middle" x="1055" y="-301.4" font-family="Times New Roman,serif" font-size="14.00">if</text>
</g>
<!-- node0&#45;&gt;node16 -->
<g id="edge32" class="edge"><title>node0&#45;&gt;node16</title>
<path fill="none" stroke="black" d="M559.175,-371.451C640.138,-361.591 797.479,-342.152 931,-324 962.12,-319.769 997.578,-314.585 1022.58,-310.869"/>
<polygon fill="black" stroke="black" points="1023.24,-314.31 1032.62,-309.373 1022.21,-307.386 1023.24,-314.31"/>
</g>
<!-- node5 -->
<g id="node6" class="node"><title>node5</title>
<ellipse fill="#9620a0" stroke="#9620a0" cx="154" cy="-234" rx="83.8525" ry="18"/>
<text text-anchor="middle" x="154" y="-229.4" font-family="Times New Roman,serif" font-size="14.00">var2 ( int variable ) </text>
</g>
<!-- node4&#45;&gt;node5 -->
<g id="edge10" class="edge"><title>node4&#45;&gt;node5</title>
<path fill="none" stroke="black" d="M454.33,-297.526C447.948,-294.143 440.278,-290.472 433,-288 433,-288 309.146,-264.028 226.479,-248.028"/>
<polygon fill="black" stroke="black" points="227.096,-244.583 216.613,-246.119 225.766,-251.455 227.096,-244.583"/>
</g>
<!-- node6 -->
<g id="node7" class="node"><title>node6</title>
<polygon fill="none" stroke="black" points="310,-252 256,-252 256,-216 310,-216 310,-252"/>
<text text-anchor="middle" x="283" y="-229.4" font-family="Times New Roman,serif" font-size="14.00">6</text>
</g>
<!-- node4&#45;&gt;node6 -->
<g id="edge12" class="edge"><title>node4&#45;&gt;node6</title>
<path fill="none" stroke="black" d="M453.829,-297.748C447.495,-294.479 439.995,-290.833 433,-288 386.541,-269.187 370.113,-271.579 319.762,-251.989"/>
<polygon fill="black" stroke="black" points="320.897,-248.673 310.312,-248.213 318.3,-255.174 320.897,-248.673"/>
</g>
<!-- node8 -->
<g id="node9" class="node"><title>node8</title>
<ellipse fill="#9620a0" stroke="#9620a0" cx="412" cy="-234" rx="83.8525" ry="18"/>
<text text-anchor="middle" x="412" y="-229.4" font-family="Times New Roman,serif" font-size="14.00">var3 ( int variable ) </text>
</g>
<!-- node7&#45;&gt;node8 -->
<g id="edge16" class="edge"><title>node7&#45;&gt;node8</title>
<path fill="none" stroke="black" d="M526.202,-297.741C508.048,-287.608 476.565,-270.037 451.247,-255.905"/>
<polygon fill="black" stroke="black" points="452.672,-252.693 442.235,-250.875 449.261,-258.805 452.672,-252.693"/>
</g>
<!-- node9 -->
<g id="node10" class="node"><title>node9</title>
<polygon fill="none" stroke="black" points="568,-252 514,-252 514,-216 568,-216 568,-252"/>
<text text-anchor="middle" x="541" y="-229.4" font-family="Times New Roman,serif" font-size="14.00">7</text>
</g>
<!-- node7&#45;&gt;node9 -->
<g id="edge18" class="edge"><title>node7&#45;&gt;node9</title>
<path fill="none" stroke="black" d="M541,-287.831C541,-280.131 541,-270.974 541,-262.417"/>
<polygon fill="black" stroke="black" points="544.5,-262.413 541,-252.413 537.5,-262.413 544.5,-262.413"/>
</g>
<!-- node11 -->
<g id="node12" class="node"><title>node11</title>
<ellipse fill="#9620a0" stroke="#9620a0" cx="682" cy="-234" rx="95.9273" ry="18"/>
<text text-anchor="middle" x="682" y="-229.4" font-family="Times New Roman,serif" font-size="14.00">const1 ( int constant ) </text>
</g>
<!-- node10&#45;&gt;node11 -->
<g id="edge22" class="edge"><title>node10&#45;&gt;node11</title>
<path fill="none" stroke="black" d="M682,-287.831C682,-280.131 682,-270.974 682,-262.417"/>
<polygon fill="black" stroke="black" points="685.5,-262.413 682,-252.413 678.5,-262.413 685.5,-262.413"/>
</g>
<!-- node12 -->
<g id="node13" class="node"><title>node12</title>
<polygon fill="none" stroke="black" points="850,-252 796,-252 796,-216 850,-216 850,-252"/>
<text text-anchor="middle" x="823" y="-229.4" font-family="Times New Roman,serif" font-size="14.00">3</text>
</g>
<!-- node10&#45;&gt;node12 -->
<g id="edge24" class="edge"><title>node10&#45;&gt;node12</title>
<path fill="none" stroke="black" d="M697.358,-298.158C718.676,-287.272 757.878,-267.254 786.844,-252.463"/>
<polygon fill="black" stroke="black" points="788.539,-255.527 795.854,-247.862 785.356,-249.293 788.539,-255.527"/>
</g>
<!-- node14 -->
<g id="node15" class="node"><title>node14</title>
<ellipse fill="#9620a0" stroke="#9620a0" cx="895" cy="-234" rx="27.0036" ry="18"/>
<text text-anchor="middle" x="895" y="-229.4" font-family="Times New Roman,serif" font-size="14.00">var1</text>
</g>
<!-- node13&#45;&gt;node14 -->
<g id="edge28" class="edge"><title>node13&#45;&gt;node14</title>
<path fill="none" stroke="black" d="M895,-287.831C895,-280.131 895,-270.974 895,-262.417"/>
<polygon fill="black" stroke="black" points="898.5,-262.413 895,-252.413 891.5,-262.413 898.5,-262.413"/>
</g>
<!-- node15 -->
<g id="node16" class="node"><title>node15</title>
<polygon fill="none" stroke="black" points="994,-252 940,-252 940,-216 994,-216 994,-252"/>
<text text-anchor="middle" x="967" y="-229.4" font-family="Times New Roman,serif" font-size="14.00">5</text>
</g>
<!-- node13&#45;&gt;node15 -->
<g id="edge30" class="edge"><title>node13&#45;&gt;node15</title>
<path fill="none" stroke="black" d="M905.935,-295.065C915.383,-285.617 929.403,-271.597 941.627,-259.373"/>
<polygon fill="black" stroke="black" points="944.353,-261.597 948.949,-252.051 939.403,-256.647 944.353,-261.597"/>
</g>
<!-- node17 -->
<g id="node18" class="node"><title>node17</title>
<polygon fill="none" stroke="black" points="1055,-252 1011.86,-234 1055,-216 1098.14,-234 1055,-252"/>
<text text-anchor="middle" x="1055" y="-229.4" font-family="Times New Roman,serif" font-size="14.00">AND</text>
</g>
<!-- node16&#45;&gt;node17 -->
<g id="edge34" class="edge"><title>node16&#45;&gt;node17</title>
<path fill="none" stroke="black" d="M1055,-287.831C1055,-280.131 1055,-270.974 1055,-262.417"/>
<polygon fill="black" stroke="black" points="1058.5,-262.413 1055,-252.413 1051.5,-262.413 1058.5,-262.413"/>
</g>
<!-- node28 -->
<g id="node29" class="node"><title>node28</title>
<polygon fill="none" stroke="black" points="1169,-252 1131.05,-234 1169,-216 1206.95,-234 1169,-252"/>
<text text-anchor="middle" x="1169" y="-229.4" font-family="Times New Roman,serif" font-size="14.00">then</text>
</g>
<!-- node16&#45;&gt;node28 -->
<g id="edge56" class="edge"><title>node16&#45;&gt;node28</title>
<path fill="none" stroke="black" d="M1068.98,-297.171C1087.66,-285.37 1121.1,-264.254 1144.13,-249.706"/>
<polygon fill="black" stroke="black" points="1146.11,-252.596 1152.7,-244.297 1142.37,-246.677 1146.11,-252.596"/>
</g>
<!-- node18 -->
<g id="node19" class="node"><title>node18</title>
<polygon fill="none" stroke="black" points="959,-180 932,-162 959,-144 986,-162 959,-180"/>
<text text-anchor="middle" x="959" y="-157.4" font-family="Times New Roman,serif" font-size="14.00">&gt;</text>
</g>
<!-- node17&#45;&gt;node18 -->
<g id="edge36" class="edge"><title>node17&#45;&gt;node18</title>
<path fill="none" stroke="black" d="M1039.58,-222.432C1023.45,-210.339 998.042,-191.281 980.073,-177.805"/>
<polygon fill="black" stroke="black" points="982.024,-174.893 971.924,-171.693 977.824,-180.493 982.024,-174.893"/>
</g>
<!-- node21 -->
<g id="node22" class="node"><title>node21</title>
<polygon fill="none" stroke="black" points="1055,-180 1019.9,-162 1055,-144 1090.1,-162 1055,-180"/>
<text text-anchor="middle" x="1055" y="-157.4" font-family="Times New Roman,serif" font-size="14.00">OR</text>
</g>
<!-- node17&#45;&gt;node21 -->
<g id="edge42" class="edge"><title>node17&#45;&gt;node21</title>
<path fill="none" stroke="black" d="M1055,-215.831C1055,-208.131 1055,-198.974 1055,-190.417"/>
<polygon fill="black" stroke="black" points="1058.5,-190.413 1055,-180.413 1051.5,-190.413 1058.5,-190.413"/>
</g>
<!-- node19 -->
<g id="node20" class="node"><title>node19</title>
<ellipse fill="#9620a0" stroke="#9620a0" cx="878" cy="-90" rx="27.0036" ry="18"/>
<text text-anchor="middle" x="878" y="-85.4" font-family="Times New Roman,serif" font-size="14.00">var1</text>
</g>
<!-- node18&#45;&gt;node19 -->
<g id="edge38" class="edge"><title>node18&#45;&gt;node19</title>
<path fill="none" stroke="black" d="M947.395,-151.684C935.657,-141.251 917.164,-124.813 902.22,-111.529"/>
<polygon fill="black" stroke="black" points="904.147,-108.559 894.347,-104.531 899.496,-113.791 904.147,-108.559"/>
</g>
<!-- node20 -->
<g id="node21" class="node"><title>node20</title>
<ellipse fill="#9620a0" stroke="#9620a0" cx="959" cy="-90" rx="36.2243" ry="18"/>
<text text-anchor="middle" x="959" y="-85.4" font-family="Times New Roman,serif" font-size="14.00">const1</text>
</g>
<!-- node18&#45;&gt;node20 -->
<g id="edge40" class="edge"><title>node18&#45;&gt;node20</title>
<path fill="none" stroke="black" d="M959,-143.831C959,-136.131 959,-126.974 959,-118.417"/>
<polygon fill="black" stroke="black" points="962.5,-118.413 959,-108.413 955.5,-118.413 962.5,-118.413"/>
</g>
<!-- node22 -->
<g id="node23" class="node"><title>node22</title>
<polygon fill="none" stroke="black" points="1040,-108 1013,-90 1040,-72 1067,-90 1040,-108"/>
<text text-anchor="middle" x="1040" y="-85.4" font-family="Times New Roman,serif" font-size="14.00">=</text>
</g>
<!-- node21&#45;&gt;node22 -->
<g id="edge44" class="edge"><title>node21&#45;&gt;node22</title>
<path fill="none" stroke="black" d="M1051.6,-145.662C1049.79,-137.009 1047.54,-126.169 1045.49,-116.36"/>
<polygon fill="black" stroke="black" points="1048.86,-115.349 1043.39,-106.273 1042,-116.777 1048.86,-115.349"/>
</g>
<!-- node25 -->
<g id="node26" class="node"><title>node25</title>
<polygon fill="none" stroke="black" points="1112,-108 1085,-90 1112,-72 1139,-90 1112,-108"/>
<text text-anchor="middle" x="1112" y="-85.4" font-family="Times New Roman,serif" font-size="14.00">&lt;</text>
</g>
<!-- node21&#45;&gt;node25 -->
<g id="edge50" class="edge"><title>node21&#45;&gt;node25</title>
<path fill="none" stroke="black" d="M1065.19,-149.128C1073.83,-138.217 1086.36,-122.39 1096.28,-109.857"/>
<polygon fill="black" stroke="black" points="1099.19,-111.819 1102.65,-101.806 1093.7,-107.474 1099.19,-111.819"/>
</g>
<!-- node23 -->
<g id="node24" class="node"><title>node23</title>
<ellipse fill="#9620a0" stroke="#9620a0" cx="968" cy="-18" rx="27.0036" ry="18"/>
<text text-anchor="middle" x="968" y="-13.4" font-family="Times New Roman,serif" font-size="14.00">var2</text>
</g>
<!-- node22&#45;&gt;node23 -->
<g id="edge46" class="edge"><title>node22&#45;&gt;node23</title>
<path fill="none" stroke="black" d="M1029.06,-79.0647C1018.8,-68.8045 1003.15,-53.1519 990.263,-40.263"/>
<polygon fill="black" stroke="black" points="992.601,-37.6514 983.055,-33.0552 987.651,-42.6012 992.601,-37.6514"/>
</g>
<!-- node24 -->
<g id="node25" class="node"><title>node24</title>
<polygon fill="none" stroke="black" points="1067,-36 1013,-36 1013,-1.06581e-014 1067,-0 1067,-36"/>
<text text-anchor="middle" x="1040" y="-13.4" font-family="Times New Roman,serif" font-size="14.00">3</text>
</g>
<!-- node22&#45;&gt;node24 -->
<g id="edge48" class="edge"><title>node22&#45;&gt;node24</title>
<path fill="none" stroke="black" d="M1040,-71.8314C1040,-64.131 1040,-54.9743 1040,-46.4166"/>
<polygon fill="black" stroke="black" points="1043.5,-46.4132 1040,-36.4133 1036.5,-46.4133 1043.5,-46.4132"/>
</g>
<!-- node26 -->
<g id="node27" class="node"><title>node26</title>
<ellipse fill="#9620a0" stroke="#9620a0" cx="1112" cy="-18" rx="27.0036" ry="18"/>
<text text-anchor="middle" x="1112" y="-13.4" font-family="Times New Roman,serif" font-size="14.00">var3</text>
</g>
<!-- node25&#45;&gt;node26 -->
<g id="edge52" class="edge"><title>node25&#45;&gt;node26</title>
<path fill="none" stroke="black" d="M1112,-71.8314C1112,-64.131 1112,-54.9743 1112,-46.4166"/>
<polygon fill="black" stroke="black" points="1115.5,-46.4132 1112,-36.4133 1108.5,-46.4133 1115.5,-46.4132"/>
</g>
<!-- node27 -->
<g id="node28" class="node"><title>node27</title>
<polygon fill="none" stroke="black" points="1211,-36 1157,-36 1157,-1.06581e-014 1211,-0 1211,-36"/>
<text text-anchor="middle" x="1184" y="-13.4" font-family="Times New Roman,serif" font-size="14.00">0</text>
</g>
<!-- node25&#45;&gt;node27 -->
<g id="edge54" class="edge"><title>node25&#45;&gt;node27</title>
<path fill="none" stroke="black" d="M1122.94,-79.0647C1132.38,-69.6171 1146.4,-55.5974 1158.63,-43.3733"/>
<polygon fill="black" stroke="black" points="1161.35,-45.597 1165.95,-36.051 1156.4,-40.6473 1161.35,-45.597"/>
</g>
<!-- node29 -->
<g id="node30" class="node"><title>node29</title>
<polygon fill="none" stroke="black" points="1184,-180 1121.89,-162 1184,-144 1246.11,-162 1184,-180"/>
<text text-anchor="middle" x="1184" y="-157.4" font-family="Times New Roman,serif" font-size="14.00">Contains</text>
</g>
<!-- node28&#45;&gt;node29 -->
<g id="edge58" class="edge"><title>node28&#45;&gt;node29</title>
<path fill="none" stroke="black" d="M1172.48,-217.301C1174.23,-208.881 1176.4,-198.461 1178.39,-188.944"/>
<polygon fill="black" stroke="black" points="1181.82,-189.612 1180.44,-179.109 1174.97,-188.185 1181.82,-189.612"/>
</g>
<!-- node30 -->
<g id="node31" class="node"><title>node30</title>
<ellipse fill="#9620a0" stroke="#9620a0" cx="1184" cy="-90" rx="27" ry="18"/>
<text text-anchor="middle" x="1184" y="-85.4" font-family="Times New Roman,serif" font-size="14.00">B1</text>
</g>
<!-- node29&#45;&gt;node30 -->
<g id="edge60" class="edge"><title>node29&#45;&gt;node30</title>
<path fill="none" stroke="black" d="M1184,-143.831C1184,-136.131 1184,-126.974 1184,-118.417"/>
<polygon fill="black" stroke="black" points="1187.5,-118.413 1184,-108.413 1180.5,-118.413 1187.5,-118.413"/>
</g>
<!-- node31 -->
<g id="node32" class="node"><title>node31</title>
<ellipse fill="#9620a0" stroke="#9620a0" cx="1256" cy="-90" rx="27" ry="18"/>
<text text-anchor="middle" x="1256" y="-85.4" font-family="Times New Roman,serif" font-size="14.00">L1</text>
</g>
<!-- node29&#45;&gt;node31 -->
<g id="edge62" class="edge"><title>node29&#45;&gt;node31</title>
<path fill="none" stroke="black" d="M1198.22,-147.775C1208.31,-137.69 1222.05,-123.952 1233.6,-112.403"/>
<polygon fill="black" stroke="black" points="1236.21,-114.736 1240.81,-105.19 1231.26,-109.786 1236.21,-114.736"/>
</g>
</g>
</svg>
